<?xml version="1.0" encoding="utf-8"?>
<!-- Generator: Adobe Illustrator 21.0.0, SVG Export Plug-In . SVG Version: 6.00 Build 0)  -->
<svg version="1.1" xmlns="http://www.w3.org/2000/svg" xmlns:xlink="http://www.w3.org/1999/xlink" x="0px" y="0px"
	 viewBox="0 0 23 23" style="enable-background:new 0 0 23 23;" xml:space="preserve">
<style type="text/css">
	.st0{fill:#E9EEF1;}
	.st1{fill:#FFFFFF;}
	.st2{fill:none;stroke:#399445;stroke-width:1.0219;stroke-miterlimit:10;}
	.st3{fill:none;stroke:#399445;stroke-width:0.9846;stroke-miterlimit:10;}
	.st4{fill:#399445;}
	.st5{fill:none;stroke:#399445;stroke-miterlimit:10;}
	.st6{fill:none;stroke:#399445;stroke-width:0.2928;stroke-miterlimit:10;}
	.st7{fill:none;stroke:#399445;stroke-width:0.3106;stroke-miterlimit:10;}
	.st8{fill:none;stroke:#399445;stroke-width:0.153;stroke-miterlimit:10;}
	.st9{fill:none;stroke:#399445;stroke-width:0.3825;stroke-miterlimit:10;}
	.st10{fill:none;stroke:#399445;stroke-width:0.75;stroke-miterlimit:10;}
</style>
<g id="original">
</g>
<g id="overlay">
</g>
<g id="Layer_3">
	<ellipse class="st2" cx="11.6" cy="10.9" rx="9.7" ry="9.9"/>
	<g>
		<g>
			<path class="st5" d="M16.1,9.4c0-2.3-1.7-4.2-3.9-4.2S8.3,7.1,8.3,9.4"/>
			<line class="st5" x1="8.3" y1="9.3" x2="8.3" y2="11.7"/>
			<line class="st5" x1="16.1" y1="9.2" x2="16.1" y2="11.7"/>
		</g>
		<g>
			<path class="st5" d="M14.7,14v2.7c0,1.3-1.1,2.4-2.4,2.4h0c-1.3,0-2.4-1.1-2.4-2.4V14"/>
			<line class="st5" x1="10" y1="15.6" x2="14.7" y2="15.6"/>
			<line class="st5" x1="10" y1="14.3" x2="14.7" y2="14.3"/>
			<line class="st5" x1="10.1" y1="17" x2="14.6" y2="17"/>
		</g>
		<line class="st5" x1="8.4" y1="11.6" x2="10" y2="14.3"/>
		<line class="st5" x1="16.1" y1="11.5" x2="14.7" y2="14.3"/>
	</g>
	<path class="st6" d="M16,9c0,2.2-1.1,4-2.5,4"/>
	<ellipse class="st7" cx="12.5" cy="10.2" rx="2.1" ry="3.1"/>
	<ellipse class="st8" cx="12.6" cy="11.1" rx="0.9" ry="2.2"/>
	<line class="st9" x1="6.4" y1="6.4" x2="7.3" y2="7.4"/>
	<line class="st9" x1="16.5" y1="7.4" x2="17.3" y2="6.7"/>
	<line class="st9" x1="7.2" y1="10.1" x2="6.1" y2="10.1"/>
	<line class="st9" x1="17.2" y1="10.2" x2="18.1" y2="10.2"/>
	<line class="st9" x1="7.7" y1="12.6" x2="7.1" y2="13.1"/>
	<line class="st9" x1="17" y1="12.5" x2="17.6" y2="13.1"/>
	<line class="st9" x1="8.6" y1="4.4" x2="9.1" y2="5"/>
	<line class="st9" x1="15.2" y1="5.2" x2="15.8" y2="4.6"/>
	<line class="st9" x1="12" y1="4" x2="12" y2="3.3"/>
</g>
</svg>
