<?xml version="1.0" encoding="utf-8"?>
<!-- Generator: Adobe Illustrator 21.0.0, SVG Export Plug-In . SVG Version: 6.00 Build 0)  -->
<svg version="1.1" xmlns="http://www.w3.org/2000/svg" xmlns:xlink="http://www.w3.org/1999/xlink" x="0px" y="0px"
	 viewBox="0 0 23 23" style="enable-background:new 0 0 23 23;" xml:space="preserve">
<style type="text/css">
	.st0{fill:#E9EEF1;}
	.st1{fill:#FFFFFF;}
	.st2{fill:none;stroke:#A8509E;stroke-width:0.9355;stroke-miterlimit:10;}
	.st3{fill:none;stroke:#A8509E;stroke-width:0.5;stroke-miterlimit:10;}
	.st4{fill:none;stroke:#A8509E;stroke-width:0.2827;stroke-miterlimit:10;}
	.st5{fill:none;stroke:#A8509E;stroke-width:0.4462;stroke-miterlimit:10;}
	.st6{fill:none;stroke:#A8509E;stroke-width:0.441;stroke-miterlimit:10;}
	.st7{fill:none;stroke:#A8509E;stroke-width:3.7095;stroke-miterlimit:10;}
	.st8{fill:none;stroke:#A8509E;stroke-width:1.5006;stroke-miterlimit:10;}
	.st9{fill:none;stroke:#B766A9;stroke-width:1.1544;stroke-miterlimit:10;}
	.st10{fill:none;stroke:#A8509E;stroke-width:2.4603;stroke-miterlimit:10;}
	.st11{fill:none;stroke:#A8509E;stroke-width:0.9952;stroke-miterlimit:10;}
	.st12{fill:none;stroke:#B766A9;stroke-width:0.7656;stroke-miterlimit:10;}
	.st13{fill:none;stroke:#B766A9;stroke-width:0.3244;stroke-miterlimit:10;}
	.st14{fill:none;stroke:#B766A9;stroke-width:0.4194;stroke-miterlimit:10;}
	.st15{fill:none;stroke:#B766A9;stroke-miterlimit:10;}
</style>
<g id="original">
</g>
<g id="OVERLAY">
</g>
<g id="drawing-ring">
</g>
<g id="drawing-wave">
</g>
<g id="drawing-amp">
	<g>
		<ellipse class="st2" cx="12.3" cy="12.2" rx="9.4" ry="9.7"/>
		<g>
			<g>
				<circle class="st10" cx="8.5" cy="12.7" r="2.4"/>
				<polygon class="st11" points="8.5,8.6 9.1,10.8 10.9,9.4 10.2,11.5 12.5,11.5 10.6,12.8 12.5,14.1 10.2,14 10.9,16.2 9.1,14.8 
					8.5,17 7.8,14.8 6,16.2 6.8,14 4.5,14.1 6.4,12.8 4.5,11.5 6.8,11.5 6,9.4 7.8,10.8 				"/>
			</g>
			<g>
				
					<ellipse transform="matrix(0.9689 -0.2473 0.2473 0.9689 -2.2954 4.3912)" class="st12" cx="16.3" cy="11.3" rx="2.4" ry="2.4"/>
				<polygon class="st12" points="15.4,7.8 16.5,9.5 18.1,8.2 17.7,10.2 19.7,10.4 18,11.6 19.3,13.1 17.3,12.7 17.1,14.8 16,13.1 
					14.4,14.4 14.8,12.4 12.8,12.2 14.5,11 13.1,9.5 15.2,9.9 				"/>
			</g>
		</g>
	</g>
</g>
</svg>
