<?xml version="1.0" encoding="utf-8"?>
<!-- Generator: Adobe Illustrator 21.0.0, SVG Export Plug-In . SVG Version: 6.00 Build 0)  -->
<svg version="1.1" xmlns="http://www.w3.org/2000/svg" xmlns:xlink="http://www.w3.org/1999/xlink" x="0px" y="0px"
	 viewBox="0 0 23 23" style="enable-background:new 0 0 23 23;" xml:space="preserve">
<style type="text/css">
	.st0{fill:#FFFFFF;}
	.st1{fill:#E9EEF1;}
	.st2{fill:none;stroke:#CD8C2A;stroke-width:1.0166;stroke-miterlimit:10;}
	.st3{fill:none;stroke:#CD8C2A;stroke-width:0.5;stroke-miterlimit:10;}
	.st4{fill:#CD8C2A;}
	.st5{fill:none;stroke:#CD8C2A;stroke-width:0.2741;stroke-miterlimit:10;}
	.st6{fill:none;stroke:#CD8C2A;stroke-width:0.3802;stroke-miterlimit:10;}
	.st7{fill:#FBAA1F;stroke:#CD8C2A;stroke-miterlimit:10;}
	.st8{fill:none;stroke:#CD8C2A;stroke-width:0.4707;stroke-miterlimit:10;}
	.st9{fill:none;stroke:#CD8C2A;stroke-miterlimit:10;}
	.st10{fill:none;stroke:#CD8C2A;stroke-width:0.3754;stroke-miterlimit:10;}
	.st11{fill:none;stroke:#CD8C2A;stroke-width:0.5729;stroke-miterlimit:10;}
	.st12{fill:none;stroke:#CD8C2A;stroke-width:0.3468;stroke-miterlimit:10;}
	.st13{fill:none;stroke:#CD8C2A;stroke-width:1.1076;stroke-miterlimit:10;}
</style>
<g id="original">
</g>
<g id="overlay">
	<g>
		<ellipse class="st2" cx="11.7" cy="11.3" rx="9.6" ry="9.7"/>
		<rect x="5.3" y="6.4" class="st10" width="12.4" height="6.5"/>
		<line class="st11" x1="8.6" y1="12.9" x2="8.6" y2="17.5"/>
		<line class="st11" x1="14.5" y1="13" x2="14.5" y2="17.4"/>
		<line class="st12" x1="8.6" y1="4.6" x2="8.6" y2="6.3"/>
		<line class="st12" x1="14.5" y1="4.6" x2="14.5" y2="6.2"/>
		<line class="st13" x1="17.4" y1="17.4" x2="5.7" y2="17.4"/>
		<line class="st12" x1="9.5" y1="6.4" x2="5.3" y2="10.7"/>
		<line class="st12" x1="11.3" y1="6.4" x2="5.3" y2="12.5"/>
		<line class="st12" x1="14.4" y1="6.4" x2="8.1" y2="12.8"/>
		<line class="st12" x1="16.5" y1="6.4" x2="10.1" y2="12.8"/>
		<line class="st12" x1="17.5" y1="6.5" x2="11.2" y2="12.8"/>
		<line class="st12" x1="17.6" y1="8.9" x2="13.8" y2="12.7"/>
		<line class="st12" x1="17.5" y1="11.2" x2="16.1" y2="12.7"/>
		<line class="st12" x1="17.6" y1="7.7" x2="12.5" y2="12.7"/>
		<line class="st12" x1="17.5" y1="10.2" x2="15" y2="12.7"/>
		<line class="st12" x1="13.4" y1="6.4" x2="7.1" y2="12.7"/>
		<line class="st12" x1="10.5" y1="6.4" x2="5.3" y2="11.6"/>
		<line class="st12" x1="8.5" y1="6.5" x2="5.4" y2="9.7"/>
		<line class="st12" x1="7" y1="6.3" x2="5.4" y2="7.8"/>
		<line class="st12" x1="15.5" y1="6.5" x2="9.2" y2="12.8"/>
		<line class="st12" x1="7.7" y1="6.4" x2="5.5" y2="8.6"/>
		<line class="st12" x1="12.3" y1="6.4" x2="6" y2="12.7"/>
	</g>
</g>
</svg>
