<?xml version="1.0" encoding="utf-8"?>
<!-- Generator: Adobe Illustrator 21.0.0, SVG Export Plug-In . SVG Version: 6.00 Build 0)  -->
<svg version="1.1" xmlns="http://www.w3.org/2000/svg" xmlns:xlink="http://www.w3.org/1999/xlink" x="0px" y="0px"
	 viewBox="0 0 23 23" style="enable-background:new 0 0 23 23;" xml:space="preserve">
<style type="text/css">
	.st0{fill:#FFFFFF;}
	.st1{fill:#E9EEF1;}
	.st2{fill:none;stroke:#CD8C2A;stroke-width:1.0166;stroke-miterlimit:10;}
	.st3{fill:none;stroke:#CD8C2A;stroke-width:0.5;stroke-miterlimit:10;}
	.st4{fill:#CD8C2A;}
	.st5{fill:none;stroke:#CD8C2A;stroke-width:0.2741;stroke-miterlimit:10;}
	.st6{fill:none;stroke:#CD8C2A;stroke-width:0.3802;stroke-miterlimit:10;}
	.st7{fill:#FBAA1F;stroke:#CD8C2A;stroke-miterlimit:10;}
	.st8{fill:none;stroke:#CD8C2A;stroke-width:0.4707;stroke-miterlimit:10;}
	.st9{fill:none;stroke:#CD8C2A;stroke-miterlimit:10;}
	.st10{fill:none;stroke:#CD8C2A;stroke-width:1.5516;stroke-miterlimit:10;}
	.st11{fill:none;stroke:#CD8C2A;stroke-width:0.9393;stroke-miterlimit:10;}
	.st12{fill:none;stroke:#CD8C2A;stroke-width:3;stroke-miterlimit:10;}
</style>
<g id="original">
</g>
<g id="overlay">
	<g>
		<ellipse class="st2" cx="11.9" cy="11.8" rx="9.6" ry="9.3"/>
		<rect x="4.7" y="8.5" class="st3" width="14.7" height="5.5"/>
		<ellipse class="st4" cx="17.5" cy="11.2" rx="0.6" ry="0.7"/>
		<ellipse class="st4" cx="15.1" cy="11.2" rx="0.6" ry="0.7"/>
		<path class="st4" d="M11.3,12.9h-1.2c-0.1,0-0.1-0.1-0.1-0.1l0,0c0-0.1,0.1-0.1,0.1-0.1h1.2c0.1,0,0.1,0.1,0.1,0.1l0,0
			C11.5,12.8,11.4,12.9,11.3,12.9z"/>
		<path class="st4" d="M14,12.8h-1.2c-0.1,0-0.1-0.1-0.1-0.1v0c0-0.1,0.1-0.1,0.1-0.1H14c0.1,0,0.1,0.1,0.1,0.1v0
			C14.2,12.8,14.1,12.8,14,12.8z"/>
		<g>
			<rect x="7.5" y="10.2" class="st4" width="0.7" height="2.2"/>
			<rect x="6.8" y="11" class="st4" width="2.1" height="0.6"/>
		</g>
		<path class="st5" d="M11.4,8.5c0-2.9,1.8-5.3,4-5.3"/>
	</g>
</g>
</svg>
