<?xml version="1.0" encoding="utf-8"?>
<!-- Generator: Adobe Illustrator 21.0.0, SVG Export Plug-In . SVG Version: 6.00 Build 0)  -->
<svg version="1.1" xmlns="http://www.w3.org/2000/svg" xmlns:xlink="http://www.w3.org/1999/xlink" x="0px" y="0px"
	 viewBox="0 0 23 23" style="enable-background:new 0 0 23 23;" xml:space="preserve">
<style type="text/css">
	.st0{fill:#E9EEF1;}
	.st1{fill:none;stroke:#628FCA;stroke-miterlimit:10;}
	.st2{fill:none;stroke:#628FCA;stroke-width:0.6807;stroke-miterlimit:10;}
	.st3{fill:none;stroke:#628FCA;stroke-width:0.1855;stroke-miterlimit:10;}
	.st4{fill:none;stroke:#4172B8;stroke-width:0.665;stroke-miterlimit:10;}
	.st5{fill:#FFFFFF;}
</style>
<g id="motion_logo">
</g>
<g id="motion_orignal">
</g>
<g id="Layer_4">
</g>
<g id="Layer_5">
</g>
<g id="Layer_6">
</g>
<g id="Layer_7">
</g>
<g id="Layer_8">
	<g>
		<g>
			<g>
				<line class="st4" x1="14.3" y1="8.8" x2="12.8" y2="15.1"/>
			</g>
			<g>
				<circle class="st4" cx="15.1" cy="6.3" r="2.8"/>
			</g>
			<line class="st4" x1="12.8" y1="14.9" x2="16.3" y2="16.1"/>
			<line class="st4" x1="15.9" y1="15.9" x2="13.1" y2="19.6"/>
			<g>
				<line class="st4" x1="12.9" y1="14.7" x2="7.9" y2="19.7"/>
			</g>
			<g>
				<line class="st4" x1="14" y1="10.7" x2="16.3" y2="12.7"/>
			</g>
			<g>
				<g>
					<path class="st4" d="M2.9,16.7c-0.1-1.2,2.9-2.4,6.6-2.6"/>
					<path class="st4" d="M2.7,13c-0.1-1.2,2.9-2.4,6.6-2.6"/>
					<path class="st4" d="M2.4,9.3C2.3,8.1,5.3,6.9,9,6.7"/>
				</g>
			</g>
			<g>
				<circle class="st4" cx="11.3" cy="11.6" r="10.3"/>
			</g>
			<line class="st4" x1="13.6" y1="10.8" x2="11.1" y2="9.9"/>
			<line class="st4" x1="11.5" y1="9.8" x2="9.5" y2="12.1"/>
		</g>
	</g>
</g>
</svg>
