<?xml version="1.0" encoding="utf-8"?>
<!-- Generator: Adobe Illustrator 21.0.0, SVG Export Plug-In . SVG Version: 6.00 Build 0)  -->
<svg version="1.1" xmlns="http://www.w3.org/2000/svg" xmlns:xlink="http://www.w3.org/1999/xlink" x="0px" y="0px"
	 viewBox="0 0 23 23" style="enable-background:new 0 0 23 23;" xml:space="preserve">
<style type="text/css">
	.st0{fill:#E9EEF1;}
	.st1{fill:#FFFFFF;}
	.st2{fill:none;stroke:#399445;stroke-width:1.0219;stroke-miterlimit:10;}
	.st3{fill:none;stroke:#399445;stroke-width:0.9846;stroke-miterlimit:10;}
	.st4{fill:#399445;}
	.st5{fill:none;stroke:#399445;stroke-miterlimit:10;}
	.st6{fill:none;stroke:#399445;stroke-width:0.2928;stroke-miterlimit:10;}
	.st7{fill:none;stroke:#399445;stroke-width:0.3106;stroke-miterlimit:10;}
	.st8{fill:none;stroke:#399445;stroke-width:0.153;stroke-miterlimit:10;}
	.st9{fill:none;stroke:#399445;stroke-width:0.3825;stroke-miterlimit:10;}
	.st10{fill:none;stroke:#399445;stroke-width:0.75;stroke-miterlimit:10;}
</style>
<g id="original">
</g>
<g id="overlay">
</g>
<g id="Layer_3">
	<g>
		<ellipse class="st2" cx="11.8" cy="12" rx="9.7" ry="9.9"/>
		<g>
			<rect x="7.3" y="5.4" class="st10" width="8.4" height="13.8"/>
			<rect x="8.6" y="7.2" class="st10" width="6.1" height="2.4"/>
			<g>
				<g>
					<path class="st4" d="M9.7,11.5H8.6c-0.3,0-0.6-0.3-0.6-0.6v0c0-0.3,0.3-0.6,0.6-0.6h1.1c0.3,0,0.6,0.3,0.6,0.6v0
						C10.3,11.3,10,11.5,9.7,11.5z"/>
					<path class="st4" d="M12.2,11.5H11c-0.3,0-0.6-0.3-0.6-0.6v0c0-0.3,0.3-0.6,0.6-0.6h1.1c0.3,0,0.6,0.3,0.6,0.6v0
						C12.7,11.2,12.5,11.5,12.2,11.5z"/>
					<path class="st4" d="M14.6,11.5h-1.1c-0.3,0-0.6-0.3-0.6-0.6v0c0-0.3,0.3-0.6,0.6-0.6h1.1c0.3,0,0.6,0.3,0.6,0.6v0
						C15.2,11.2,14.9,11.5,14.6,11.5z"/>
				</g>
				<g>
					<path class="st4" d="M9.8,13.6H8.6c-0.3,0-0.6-0.3-0.6-0.6v0c0-0.3,0.3-0.6,0.6-0.6h1.1c0.3,0,0.6,0.3,0.6,0.6v0
						C10.3,13.4,10.1,13.6,9.8,13.6z"/>
					<path class="st4" d="M12.2,13.6h-1.1c-0.3,0-0.6-0.3-0.6-0.6v0c0-0.3,0.3-0.6,0.6-0.6h1.1c0.3,0,0.6,0.3,0.6,0.6v0
						C12.8,13.4,12.5,13.6,12.2,13.6z"/>
					<path class="st4" d="M14.6,13.6h-1.1c-0.3,0-0.6-0.3-0.6-0.6v0c0-0.3,0.3-0.6,0.6-0.6h1.1c0.3,0,0.6,0.3,0.6,0.6v0
						C15.2,13.4,14.9,13.6,14.6,13.6z"/>
				</g>
				<g>
					<path class="st4" d="M9.8,15.8H8.7c-0.3,0-0.6-0.3-0.6-0.6v0c0-0.3,0.3-0.6,0.6-0.6h1.1c0.3,0,0.6,0.3,0.6,0.6v0
						C10.4,15.5,10.1,15.8,9.8,15.8z"/>
					<path class="st4" d="M12.2,15.8h-1.1c-0.3,0-0.6-0.3-0.6-0.6v0c0-0.3,0.3-0.6,0.6-0.6h1.1c0.3,0,0.6,0.3,0.6,0.6v0
						C12.8,15.5,12.5,15.8,12.2,15.8z"/>
					<path class="st4" d="M14.7,15.8h-1.1c-0.3,0-0.6-0.3-0.6-0.6v0c0-0.3,0.3-0.6,0.6-0.6h1.1c0.3,0,0.6,0.3,0.6,0.6v0
						C15.2,15.5,15,15.8,14.7,15.8z"/>
				</g>
			</g>
			<path class="st4" d="M14.3,17.9h-2.9c-0.3,0-0.6-0.2-0.6-0.6l0,0c0-0.3,0.2-0.6,0.6-0.6h2.9c0.3,0,0.6,0.2,0.6,0.6l0,0
				C14.8,17.7,14.6,17.9,14.3,17.9z"/>
		</g>
	</g>
</g>
</svg>
