<?xml version="1.0" encoding="utf-8"?>
<!-- Generator: Adobe Illustrator 21.0.0, SVG Export Plug-In . SVG Version: 6.00 Build 0)  -->
<svg version="1.1" xmlns="http://www.w3.org/2000/svg" xmlns:xlink="http://www.w3.org/1999/xlink" x="0px" y="0px"
	 viewBox="0 0 23 23" style="enable-background:new 0 0 23 23;" xml:space="preserve">
<style type="text/css">
	.st0{fill:#E9EEF1;}
	.st1{fill:#FFFFFF;}
	.st2{fill:none;stroke:#2C8EB8;stroke-width:0.5;stroke-miterlimit:10;}
	.st3{fill:#2C8EB8;}
	.st4{fill:none;stroke:#2C8EB8;stroke-width:0.3363;stroke-miterlimit:10;}
	.st5{fill:none;stroke:#2C8EB8;stroke-width:0.4051;stroke-miterlimit:10;}
	.st6{fill:none;stroke:#2C8EB8;stroke-width:0.4954;stroke-miterlimit:10;}
	.st7{fill:none;stroke:#2C8EB8;stroke-width:1.0367;stroke-miterlimit:10;}
	.st8{fill:none;stroke:#2C8EB8;stroke-miterlimit:10;}
	.st9{fill:#4DBFE6;stroke:#2C8EB8;stroke-miterlimit:10;}
	.st10{fill:none;stroke:#2C8EB8;stroke-width:1.2;stroke-miterlimit:10;}
	.st11{fill:none;stroke:#2C8EB8;stroke-width:0.6583;stroke-miterlimit:10;}
	.st12{fill:none;stroke:#2C8EB8;stroke-width:0.7899;stroke-miterlimit:10;}
	.st13{fill:none;stroke:#2C8EB8;stroke-width:0.4449;stroke-miterlimit:10;}
	.st14{fill:none;stroke:#2C8EB8;stroke-width:0.2929;stroke-miterlimit:10;}
	.st15{fill:none;stroke:#2C8EB8;stroke-width:0.3514;stroke-miterlimit:10;}
</style>
<g id="origin">
</g>
<g id="overlay">
</g>
<g id="drawing">
	<g>
		<circle class="st7" cx="11.6" cy="11.9" r="9.4"/>
		<g>
			<line class="st2" x1="11.5" y1="8.9" x2="6.6" y2="18.3"/>
			<line class="st2" x1="11.7" y1="9.3" x2="16.7" y2="18.2"/>
			<ellipse class="st3" cx="11.5" cy="9" rx="1.2" ry="1.3"/>
			<line class="st2" x1="8.7" y1="14.1" x2="14.4" y2="14.1"/>
			<line class="st2" x1="11.6" y1="9.1" x2="11.6" y2="18.4"/>
			<line class="st2" x1="6.8" y1="18.1" x2="16.7" y2="18.1"/>
			<g>
				<path class="st4" d="M14,7.1c1,1,1,2.6,0,3.6"/>
				<path class="st5" d="M15.2,6.8c1.1,1.3,1,3.2-0.2,4.4"/>
				<path class="st6" d="M16.4,6.4c1.4,1.5,1.3,3.9-0.3,5.3"/>
			</g>
			<g>
				<path class="st4" d="M9.1,10.9c-1-1-1-2.6,0-3.6"/>
				<path class="st5" d="M7.9,11.2c-1.1-1.3-1-3.2,0.2-4.4"/>
				<path class="st6" d="M6.8,11.6C5.4,10,5.5,7.6,7,6.2"/>
			</g>
		</g>
	</g>
</g>
</svg>
