<?xml version="1.0" encoding="utf-8"?>
<!-- Generator: Adobe Illustrator 21.0.0, SVG Export Plug-In . SVG Version: 6.00 Build 0)  -->
<svg version="1.1" xmlns="http://www.w3.org/2000/svg" xmlns:xlink="http://www.w3.org/1999/xlink" x="0px" y="0px"
	 viewBox="0 0 23 23" style="enable-background:new 0 0 23 23;" xml:space="preserve">
<style type="text/css">
	.st0{fill:#E9EEF1;}
	.st1{fill:#FFFFFF;}
	.st2{fill:none;stroke:#2C8EB8;stroke-width:0.5;stroke-miterlimit:10;}
	.st3{fill:#2C8EB8;}
	.st4{fill:none;stroke:#2C8EB8;stroke-width:0.3363;stroke-miterlimit:10;}
	.st5{fill:none;stroke:#2C8EB8;stroke-width:0.4051;stroke-miterlimit:10;}
	.st6{fill:none;stroke:#2C8EB8;stroke-width:0.4954;stroke-miterlimit:10;}
	.st7{fill:none;stroke:#2C8EB8;stroke-width:1.0367;stroke-miterlimit:10;}
	.st8{fill:none;stroke:#2C8EB8;stroke-miterlimit:10;}
	.st9{fill:#4DBFE6;stroke:#2C8EB8;stroke-miterlimit:10;}
	.st10{fill:none;stroke:#2C8EB8;stroke-width:1.2;stroke-miterlimit:10;}
	.st11{fill:none;stroke:#2C8EB8;stroke-width:0.6583;stroke-miterlimit:10;}
	.st12{fill:none;stroke:#2C8EB8;stroke-width:0.7899;stroke-miterlimit:10;}
	.st13{fill:none;stroke:#2C8EB8;stroke-width:0.4449;stroke-miterlimit:10;}
	.st14{fill:none;stroke:#2C8EB8;stroke-width:0.2929;stroke-miterlimit:10;}
	.st15{fill:none;stroke:#2C8EB8;stroke-width:0.3514;stroke-miterlimit:10;}
</style>
<g id="origin">
</g>
<g id="overlay">
</g>
<g id="drawing">
	<g>
		<ellipse class="st8" cx="11.9" cy="11.4" rx="9.6" ry="9.7"/>
		<g>
			<line class="st13" x1="7.9" y1="17.1" x2="15.5" y2="17.1"/>
			<line class="st13" x1="12" y1="16.7" x2="12" y2="5.7"/>
			<line class="st13" x1="6.5" y1="6.1" x2="17.2" y2="6.1"/>
			<g>
				<line class="st14" x1="7.1" y1="5.9" x2="4.7" y2="10.9"/>
				<line class="st14" x1="9.6" y1="10.7" x2="7.1" y2="5.9"/>
				<line class="st14" x1="4.7" y1="10.7" x2="9.6" y2="10.7"/>
				<path class="st15" d="M9.6,10.7c0,1.3-1.1,2.4-2.4,2.4s-2.4-1.1-2.4-2.4"/>
			</g>
			<g>
				<line class="st14" x1="16.8" y1="6" x2="14.4" y2="11"/>
				<line class="st14" x1="19.3" y1="10.8" x2="16.8" y2="6"/>
				<line class="st14" x1="14.4" y1="10.8" x2="19.3" y2="10.8"/>
				<path class="st15" d="M19.3,10.9c0,1.3-1.1,2.4-2.4,2.4c-1.3,0-2.4-1.1-2.4-2.4"/>
			</g>
		</g>
	</g>
</g>
</svg>
